<mxfile host="app.diagrams.net" modified="2022-10-21T08:15:58.476Z" agent="5.0 (Windows NT 10.0; Win64; x64) AppleWebKit/537.36 (KHTML, like Gecko) Chrome/106.0.0.0 Safari/537.36" etag="ZgWjajaUDbEgogPV21a7" version="20.4.2" type="github">
  <diagram id="2ciFKfZ7ZzHzfvBWZ5C_" name="Page-1">
    <mxGraphModel dx="1483" dy="836" grid="1" gridSize="10" guides="1" tooltips="1" connect="1" arrows="1" fold="1" page="1" pageScale="1" pageWidth="850" pageHeight="1100" math="0" shadow="0">
      <root>
        <mxCell id="0" />
        <mxCell id="1" parent="0" />
        <mxCell id="_sUXLbSh4wj3Fm5f3w61-1" value="USER" style="swimlane;whiteSpace=wrap" vertex="1" parent="1">
          <mxGeometry x="100" y="128" width="344.5" height="632" as="geometry" />
        </mxCell>
        <mxCell id="_sUXLbSh4wj3Fm5f3w61-2" value="" style="ellipse;shape=startState;fillColor=#000000;strokeColor=#ff0000;" vertex="1" parent="_sUXLbSh4wj3Fm5f3w61-1">
          <mxGeometry x="100" y="40" width="30" height="30" as="geometry" />
        </mxCell>
        <mxCell id="_sUXLbSh4wj3Fm5f3w61-3" value="" style="edgeStyle=elbowEdgeStyle;elbow=horizontal;verticalAlign=bottom;endArrow=open;endSize=8;strokeColor=#FF0000;endFill=1;rounded=0" edge="1" parent="_sUXLbSh4wj3Fm5f3w61-1" source="_sUXLbSh4wj3Fm5f3w61-2" target="_sUXLbSh4wj3Fm5f3w61-4">
          <mxGeometry x="100" y="40" as="geometry">
            <mxPoint x="115" y="110" as="targetPoint" />
          </mxGeometry>
        </mxCell>
        <mxCell id="_sUXLbSh4wj3Fm5f3w61-4" value="idle" style="rounded=1;whiteSpace=wrap;html=1;" vertex="1" parent="_sUXLbSh4wj3Fm5f3w61-1">
          <mxGeometry x="60" y="110" width="110" height="50" as="geometry" />
        </mxCell>
        <mxCell id="_sUXLbSh4wj3Fm5f3w61-5" value="user action" style="rounded=1;whiteSpace=wrap;html=1;" vertex="1" parent="_sUXLbSh4wj3Fm5f3w61-1">
          <mxGeometry x="60" y="220" width="110" height="50" as="geometry" />
        </mxCell>
        <mxCell id="_sUXLbSh4wj3Fm5f3w61-6" value="" style="endArrow=open;strokeColor=#FF0000;endFill=1;rounded=0" edge="1" parent="_sUXLbSh4wj3Fm5f3w61-1" source="_sUXLbSh4wj3Fm5f3w61-4" target="_sUXLbSh4wj3Fm5f3w61-5">
          <mxGeometry relative="1" as="geometry" />
        </mxCell>
        <mxCell id="_sUXLbSh4wj3Fm5f3w61-7" value="" style="endArrow=open;strokeColor=#FF0000;endFill=1;rounded=0" edge="1" parent="_sUXLbSh4wj3Fm5f3w61-1" source="_sUXLbSh4wj3Fm5f3w61-5">
          <mxGeometry relative="1" as="geometry">
            <mxPoint x="115" y="325" as="targetPoint" />
          </mxGeometry>
        </mxCell>
        <mxCell id="_sUXLbSh4wj3Fm5f3w61-8" value="Post Command :&lt;br&gt;&lt;ul&gt;&lt;li style=&quot;text-align: justify;&quot;&gt;Jadwal Kuliah&lt;/li&gt;&lt;li style=&quot;text-align: justify;&quot;&gt;Jadwal Ujian&lt;/li&gt;&lt;li style=&quot;text-align: justify;&quot;&gt;Kalender Akademik&lt;/li&gt;&lt;li style=&quot;text-align: justify;&quot;&gt;Mahasiswa Baru&lt;/li&gt;&lt;li style=&quot;text-align: justify;&quot;&gt;Kelas Baru&lt;/li&gt;&lt;/ul&gt;" style="rounded=1;whiteSpace=wrap;html=1;" vertex="1" parent="_sUXLbSh4wj3Fm5f3w61-1">
          <mxGeometry x="60" y="325" width="170" height="115" as="geometry" />
        </mxCell>
        <mxCell id="_sUXLbSh4wj3Fm5f3w61-9" value="" style="endArrow=open;strokeColor=#FF0000;endFill=1;rounded=0" edge="1" parent="_sUXLbSh4wj3Fm5f3w61-1">
          <mxGeometry relative="1" as="geometry">
            <mxPoint x="230" y="382.15999999999997" as="sourcePoint" />
            <mxPoint x="364.5" y="382.15999999999997" as="targetPoint" />
          </mxGeometry>
        </mxCell>
        <mxCell id="_sUXLbSh4wj3Fm5f3w61-10" value="DISCORD BOT" style="swimlane;whiteSpace=wrap" vertex="1" parent="1">
          <mxGeometry x="444.5" y="128" width="315.5" height="632" as="geometry" />
        </mxCell>
        <mxCell id="_sUXLbSh4wj3Fm5f3w61-11" value="" style="ellipse;shape=startState;fillColor=#000000;strokeColor=#ff0000;" vertex="1" parent="_sUXLbSh4wj3Fm5f3w61-10">
          <mxGeometry x="60" y="40" width="30" height="30" as="geometry" />
        </mxCell>
        <mxCell id="_sUXLbSh4wj3Fm5f3w61-12" value="" style="edgeStyle=elbowEdgeStyle;elbow=horizontal;verticalAlign=bottom;endArrow=open;endSize=8;strokeColor=#FF0000;endFill=1;rounded=0" edge="1" parent="_sUXLbSh4wj3Fm5f3w61-10" source="_sUXLbSh4wj3Fm5f3w61-11" target="_sUXLbSh4wj3Fm5f3w61-13">
          <mxGeometry x="40" y="20" as="geometry">
            <mxPoint x="55" y="90" as="targetPoint" />
          </mxGeometry>
        </mxCell>
        <mxCell id="_sUXLbSh4wj3Fm5f3w61-13" value="idle" style="rounded=1;whiteSpace=wrap;html=1;" vertex="1" parent="_sUXLbSh4wj3Fm5f3w61-10">
          <mxGeometry x="20" y="110" width="110" height="50" as="geometry" />
        </mxCell>
        <mxCell id="_sUXLbSh4wj3Fm5f3w61-14" value="check message for &lt;br&gt;new commands" style="rounded=1;whiteSpace=wrap;html=1;" vertex="1" parent="_sUXLbSh4wj3Fm5f3w61-10">
          <mxGeometry x="20" y="220" width="110" height="50" as="geometry" />
        </mxCell>
        <mxCell id="_sUXLbSh4wj3Fm5f3w61-15" value="" style="endArrow=open;strokeColor=#FF0000;endFill=1;rounded=0" edge="1" parent="_sUXLbSh4wj3Fm5f3w61-10" source="_sUXLbSh4wj3Fm5f3w61-13" target="_sUXLbSh4wj3Fm5f3w61-14">
          <mxGeometry relative="1" as="geometry" />
        </mxCell>
        <mxCell id="_sUXLbSh4wj3Fm5f3w61-16" value="command queue" style="rounded=1;whiteSpace=wrap;html=1;" vertex="1" parent="_sUXLbSh4wj3Fm5f3w61-10">
          <mxGeometry x="20" y="358" width="110" height="50" as="geometry" />
        </mxCell>
        <mxCell id="_sUXLbSh4wj3Fm5f3w61-17" value="" style="endArrow=open;strokeColor=#FF0000;endFill=1;rounded=0;startArrow=open;startFill=0;" edge="1" parent="_sUXLbSh4wj3Fm5f3w61-10" source="_sUXLbSh4wj3Fm5f3w61-14" target="_sUXLbSh4wj3Fm5f3w61-16">
          <mxGeometry relative="1" as="geometry" />
        </mxCell>
        <mxCell id="_sUXLbSh4wj3Fm5f3w61-18" value="Command is found" style="rhombus;fillColor=#ffffc0;strokeColor=#ff0000;fontSize=12;" vertex="1" parent="_sUXLbSh4wj3Fm5f3w61-10">
          <mxGeometry x="159" y="216" width="121" height="65" as="geometry" />
        </mxCell>
        <mxCell id="_sUXLbSh4wj3Fm5f3w61-19" value="no" style="edgeStyle=elbowEdgeStyle;elbow=horizontal;align=left;verticalAlign=bottom;endArrow=open;endSize=8;strokeColor=#FF0000;exitX=0.5;exitY=0;endFill=1;rounded=0;entryX=0.75;entryY=0.5;entryPerimeter=0;entryDx=0;entryDy=0;exitDx=0;exitDy=0;" edge="1" parent="_sUXLbSh4wj3Fm5f3w61-10" source="_sUXLbSh4wj3Fm5f3w61-18" target="_sUXLbSh4wj3Fm5f3w61-22">
          <mxGeometry x="-1" relative="1" as="geometry">
            <mxPoint x="160" y="147.5" as="targetPoint" />
            <Array as="points">
              <mxPoint x="220" y="192" />
            </Array>
            <mxPoint x="200" y="225" as="sourcePoint" />
          </mxGeometry>
        </mxCell>
        <mxCell id="_sUXLbSh4wj3Fm5f3w61-20" value="yes" style="edgeStyle=elbowEdgeStyle;elbow=horizontal;align=left;verticalAlign=top;endArrow=open;endSize=8;strokeColor=#FF0000;endFill=1;rounded=0;entryX=0.5;entryY=0;entryDx=0;entryDy=0;" edge="1" parent="_sUXLbSh4wj3Fm5f3w61-10">
          <mxGeometry x="-1" relative="1" as="geometry">
            <mxPoint x="219.42" y="358" as="targetPoint" />
            <mxPoint x="219.08666666666673" y="281.0316804407714" as="sourcePoint" />
            <Array as="points">
              <mxPoint x="219.42" y="322" />
            </Array>
          </mxGeometry>
        </mxCell>
        <mxCell id="_sUXLbSh4wj3Fm5f3w61-21" value="" style="endArrow=open;strokeColor=#FF0000;endFill=1;rounded=0" edge="1" parent="_sUXLbSh4wj3Fm5f3w61-10" source="_sUXLbSh4wj3Fm5f3w61-14" target="_sUXLbSh4wj3Fm5f3w61-18">
          <mxGeometry relative="1" as="geometry" />
        </mxCell>
        <mxCell id="_sUXLbSh4wj3Fm5f3w61-22" value="" style="shape=line;strokeWidth=6;strokeColor=#ff0000;rotation=90" vertex="1" parent="_sUXLbSh4wj3Fm5f3w61-10">
          <mxGeometry x="130" y="127.5" width="50" height="15" as="geometry" />
        </mxCell>
        <mxCell id="_sUXLbSh4wj3Fm5f3w61-23" value="" style="edgeStyle=elbowEdgeStyle;elbow=horizontal;verticalAlign=bottom;endArrow=open;endSize=8;strokeColor=#FF0000;endFill=1;rounded=0" edge="1" parent="_sUXLbSh4wj3Fm5f3w61-10" source="_sUXLbSh4wj3Fm5f3w61-22" target="_sUXLbSh4wj3Fm5f3w61-13">
          <mxGeometry x="130" y="90" as="geometry">
            <mxPoint x="230" y="140" as="targetPoint" />
          </mxGeometry>
        </mxCell>
        <mxCell id="_sUXLbSh4wj3Fm5f3w61-24" value="dispatch&#xa;command&#xa;worker thread" style="rounded=1;whiteSpace=wrap;html=1;" vertex="1" parent="_sUXLbSh4wj3Fm5f3w61-10">
          <mxGeometry x="164" y="358" width="110" height="50" as="geometry" />
        </mxCell>
        <mxCell id="_sUXLbSh4wj3Fm5f3w61-25" value="" style="whiteSpace=wrap;strokeColor=#FF0000;fillColor=#FF0000" vertex="1" parent="_sUXLbSh4wj3Fm5f3w61-10">
          <mxGeometry x="280" y="422" width="5" height="45" as="geometry" />
        </mxCell>
        <mxCell id="_sUXLbSh4wj3Fm5f3w61-26" value="" style="edgeStyle=elbowEdgeStyle;elbow=horizontal;strokeColor=#FF0000;endArrow=open;endFill=1;rounded=0;entryX=0;entryY=0.5;entryDx=0;entryDy=0;" edge="1" parent="_sUXLbSh4wj3Fm5f3w61-10">
          <mxGeometry width="100" height="100" relative="1" as="geometry">
            <mxPoint x="221.5" y="408" as="sourcePoint" />
            <mxPoint x="280" y="444.5" as="targetPoint" />
            <Array as="points">
              <mxPoint x="221.5" y="467" />
            </Array>
          </mxGeometry>
        </mxCell>
        <mxCell id="_sUXLbSh4wj3Fm5f3w61-27" value="" style="edgeStyle=elbowEdgeStyle;elbow=horizontal;strokeColor=#FF0000;endArrow=open;endFill=1;rounded=0;entryX=0.25;entryY=0.5;entryPerimeter=0;exitX=1;exitY=0.25;exitDx=0;exitDy=0;" edge="1" parent="_sUXLbSh4wj3Fm5f3w61-10" source="_sUXLbSh4wj3Fm5f3w61-25" target="_sUXLbSh4wj3Fm5f3w61-22">
          <mxGeometry width="100" height="100" relative="1" as="geometry">
            <mxPoint x="285.5" y="410" as="sourcePoint" />
            <mxPoint x="195.5" y="120" as="targetPoint" />
            <Array as="points">
              <mxPoint x="305.5" y="135" />
            </Array>
          </mxGeometry>
        </mxCell>
        <mxCell id="_sUXLbSh4wj3Fm5f3w61-28" value="Response" style="rounded=1;whiteSpace=wrap;html=1;" vertex="1" parent="_sUXLbSh4wj3Fm5f3w61-10">
          <mxGeometry x="20" y="492" width="110" height="50" as="geometry" />
        </mxCell>
        <mxCell id="_sUXLbSh4wj3Fm5f3w61-29" value="" style="ellipse;shape=endState;fillColor=#000000;strokeColor=#ff0000" vertex="1" parent="_sUXLbSh4wj3Fm5f3w61-10">
          <mxGeometry x="140.5" y="582" width="30" height="30" as="geometry" />
        </mxCell>
        <mxCell id="_sUXLbSh4wj3Fm5f3w61-30" value="" style="endArrow=open;strokeColor=#FF0000;endFill=1;rounded=0;exitX=0.5;exitY=1;exitDx=0;exitDy=0;" edge="1" parent="_sUXLbSh4wj3Fm5f3w61-10" source="_sUXLbSh4wj3Fm5f3w61-28" target="_sUXLbSh4wj3Fm5f3w61-29">
          <mxGeometry relative="1" as="geometry" />
        </mxCell>
        <mxCell id="_sUXLbSh4wj3Fm5f3w61-31" value="" style="edgeStyle=orthogonalEdgeStyle;curved=1;rounded=0;orthogonalLoop=1;jettySize=auto;html=1;endArrow=open;endFill=0;strokeColor=#FF3333;" edge="1" parent="_sUXLbSh4wj3Fm5f3w61-10" source="_sUXLbSh4wj3Fm5f3w61-32" target="_sUXLbSh4wj3Fm5f3w61-28">
          <mxGeometry relative="1" as="geometry" />
        </mxCell>
        <mxCell id="_sUXLbSh4wj3Fm5f3w61-32" value="Formatting" style="rounded=1;whiteSpace=wrap;html=1;" vertex="1" parent="_sUXLbSh4wj3Fm5f3w61-10">
          <mxGeometry x="177" y="492" width="120" height="48" as="geometry" />
        </mxCell>
        <mxCell id="_sUXLbSh4wj3Fm5f3w61-33" value="WEBSITE BAAK" style="swimlane;whiteSpace=wrap" vertex="1" parent="1">
          <mxGeometry x="760" y="128" width="300" height="632" as="geometry" />
        </mxCell>
        <mxCell id="_sUXLbSh4wj3Fm5f3w61-34" value="" style="edgeStyle=orthogonalEdgeStyle;rounded=0;orthogonalLoop=1;jettySize=auto;html=1;fillColor=#f8cecc;strokeColor=#FF3333;endArrow=open;endFill=0;" edge="1" parent="_sUXLbSh4wj3Fm5f3w61-33" source="_sUXLbSh4wj3Fm5f3w61-35" target="_sUXLbSh4wj3Fm5f3w61-36">
          <mxGeometry relative="1" as="geometry" />
        </mxCell>
        <mxCell id="_sUXLbSh4wj3Fm5f3w61-35" value="API Request" style="rounded=1;whiteSpace=wrap;html=1;" vertex="1" parent="_sUXLbSh4wj3Fm5f3w61-33">
          <mxGeometry x="20" y="112" width="100" height="48" as="geometry" />
        </mxCell>
        <mxCell id="_sUXLbSh4wj3Fm5f3w61-36" value="Scraping the Information" style="rounded=1;whiteSpace=wrap;html=1;" vertex="1" parent="_sUXLbSh4wj3Fm5f3w61-33">
          <mxGeometry x="170" y="112" width="110" height="48" as="geometry" />
        </mxCell>
        <mxCell id="_sUXLbSh4wj3Fm5f3w61-37" value="" style="edgeStyle=none;strokeColor=#FF0000;endArrow=open;endFill=1;rounded=0;exitX=1;exitY=0.75;exitDx=0;exitDy=0;entryX=0.5;entryY=1;entryDx=0;entryDy=0;" edge="1" parent="1" source="_sUXLbSh4wj3Fm5f3w61-25" target="_sUXLbSh4wj3Fm5f3w61-35">
          <mxGeometry width="100" height="100" relative="1" as="geometry">
            <mxPoint x="730" y="557.5" as="sourcePoint" />
            <mxPoint x="840" y="584" as="targetPoint" />
            <Array as="points">
              <mxPoint x="830" y="584" />
            </Array>
          </mxGeometry>
        </mxCell>
        <mxCell id="_sUXLbSh4wj3Fm5f3w61-38" style="rounded=0;orthogonalLoop=1;jettySize=auto;html=1;entryX=1;entryY=0.5;entryDx=0;entryDy=0;endArrow=open;endFill=0;strokeColor=#FF3333;exitX=0.5;exitY=1;exitDx=0;exitDy=0;edgeStyle=orthogonalEdgeStyle;curved=1;" edge="1" parent="1" source="_sUXLbSh4wj3Fm5f3w61-36" target="_sUXLbSh4wj3Fm5f3w61-32">
          <mxGeometry relative="1" as="geometry">
            <mxPoint x="990" y="290" as="sourcePoint" />
          </mxGeometry>
        </mxCell>
      </root>
    </mxGraphModel>
  </diagram>
</mxfile>
